<svg xmlns="http://www.w3.org/2000/svg" viewBox="0 0 50 50"><path d="M23.8,20.8,25,22l1.2-1.2A4.9,4.9,0,0,1,23.8,20.8Z" style="fill:#072c49"/><path d="M19.6,21.5l-1.2.5a5.2,5.2,0,0,0-3.3,4.8v3.6h8.8C19.3,21,19.6,21.7,19.6,21.5Z" style="fill:#072c49"/><path d="M31.6,22l-1.2-.5c0,.2.2-.3-4.3,8.9h8.8V26.8A5.2,5.2,0,0,0,31.6,22Z" style="fill:#072c49"/><path d="M27.8,18.7c1.1-1.2,1-2.4,1-3.8-4.6.5-2.8.5-7.6,0,0,1.4-.1,2.6,1,3.8a3.7,3.7,0,0,0,5.3.3Z" style="fill:#072c49"/><path d="M30.4,15.5a1.2,1.2,0,0,0,0-1.4l-.7-.2v1.8Z" style="fill:#072c49"/><path d="M19.3,14.8a1,1,0,0,0,1,.9V13.9A1,1,0,0,0,19.3,14.8Z" style="fill:#072c49"/><path d="M22.6,25.6,25,23.3l-2.8-2.8-1.7.8Z" style="fill:#072c49"/><path d="M20.8,13.9c5.1.5,3,.6,8.4,0V10.6h1.9v1.7l-.3.3a.5.5,0,0,0,0,.7h.3a.5.5,0,0,0,.5-.3c.2.2.3.3.5.3a.5.5,0,0,0,.4-.5.4.4,0,0,0-.1-.3l-.3-.3V8.7H17.9v1.9h2.9Z" style="fill:#072c49"/><path d="M29.5,21.3l-1.7-.8L25,23.3l2.4,2.3Z" style="fill:#072c49"/><path d="M25,24.6l-1.9,1.9L25,30.4l1.9-3.9Z" style="fill:#072c49"/><path d="M24,37.1v2l.4-.4a.9.9,0,0,1,1.2,0l.4.4v-2a3.4,3.4,0,0,1-2,0Z" style="fill:#1d7cc0;fill-rule:evenodd"/><path d="M21.6,34.7H10.7v.5a11.6,11.6,0,0,0,.9,4.1,66.2,66.2,0,0,1,11.4-1V36.6a3,3,0,0,1-1.4-1.9Z" style="fill:#1d7cc0;fill-rule:evenodd"/><path d="M28.6,33.7H38.7a10.2,10.2,0,0,0-.6-2.5,55.2,55.2,0,0,1-9.9.9,4.7,4.7,0,0,1,.4,1.6Z" style="fill:#1d7cc0;fill-rule:evenodd"/><path d="M21.4,33.7a4.7,4.7,0,0,1,.4-1.6,55.2,55.2,0,0,1-9.9-.9,10.2,10.2,0,0,0-.6,2.5Z" style="fill:#1d7cc0;fill-rule:evenodd"/><path d="M28.4,34.7A3,3,0,0,1,27,36.6v1.7a66.2,66.2,0,0,1,11.4,1,11.6,11.6,0,0,0,.9-4.1v-.5Z" style="fill:#1d7cc0;fill-rule:evenodd"/><path d="M25,31.2a2.5,2.5,0,0,0-2.5,2.5,2.5,2.5,0,1,0,5,0A2.5,2.5,0,0,0,25,31.2Zm0,4a1.4,1.4,0,0,1-1.4-.9,1.5,1.5,0,0,1,2-2,1.4,1.4,0,0,1,.9,1.4A1.5,1.5,0,0,1,25,35.2Z" style="fill:#1d7cc0"/><circle cx="25" cy="33.7" r="0.5" style="fill:#1d7cc0"/><circle cx="25" cy="25" r="24" style="fill:none;stroke:#1043e9;stroke-miterlimit:10"/></svg>