<svg xmlns="http://www.w3.org/2000/svg" viewBox="0 0 50 50"><path d="M27.9,6.3H21.6a16.3,16.3,0,1,0,6.3-.1Z" style="fill:#d4e6ff"/><path d="M13.7,31.5V38a2,2,0,0,0,2,2H34.3a2,2,0,0,0,2-2V31.5Z" style="fill:#5f5f9b"/><path d="M19,38.1l-.2-6.6H13.7V38a2,2,0,0,0,2,2H19a1.3,1.3,0,0,1,0-1.9Z" style="fill:#47477f"/><path d="M34.5,31.5h-19v6.1a.6.6,0,0,0,.6.5H33.9a.6.6,0,0,0,.6-.5Z" style="fill:#3b3868"/><path d="M18.2,37.3V33.8a.9.9,0,0,1,.3-.7V31.5h-3v6.1a.6.6,0,0,0,.6.5H19a.8.8,0,0,1-.8-.8Z" style="fill:#2d2d59"/><path d="M26.1,19.8a.8.8,0,0,1-.9-.8.7.7,0,0,1-.8.8.8.8,0,0,1-.8-.8h0a.9.9,0,0,1-.8.8.8.8,0,0,1-.9-.8V10.7h5.7v.7a1.1,1.1,0,0,0,.3.8,3.2,3.2,0,0,1,.7,1.9V19a.8.8,0,0,1-.9.8.8.8,0,0,1-.8-.8h0a.8.8,0,0,1-.8.8Z" style="fill:#fcad6d"/><path d="M31.6,22.1a.5.5,0,0,1-.5-.5,5.1,5.1,0,0,0-1.9-3.2l-.4-.3a.4.4,0,0,1-.2-.7.5.5,0,0,1,.6-.2l.6.4a6.5,6.5,0,0,1,2.3,3.9.7.7,0,0,1-.4.6Z" style="fill:#e9efff"/><path d="M30.9,18.7a3.8,3.8,0,0,0-1.1-1.1l-.6-.4a.5.5,0,0,0-.6.2.4.4,0,0,0,.2.7l.4.3a4.7,4.7,0,0,1,1,1,.6.6,0,0,1,.7-.7Z" style="fill:#bec9f7"/><path d="M18.4,22.1h-.1a.7.7,0,0,1-.4-.6,6.5,6.5,0,0,1,2.3-3.9l.6-.4a.5.5,0,0,1,.6.2.4.4,0,0,1-.2.7l-.4.3a5.1,5.1,0,0,0-1.9,3.2.5.5,0,0,1-.5.5Z" style="fill:#bec9f7"/><path d="M28.6,17.8H21.4a.7.7,0,0,1-.8-.7h0v1.2a.8.8,0,0,0,.8.9h7.2a.8.8,0,0,0,.8-.9V17.1h0A.7.7,0,0,1,28.6,17.8Z" style="fill:#47477f"/><path d="M28.6,17.9H21.4a.8.8,0,0,1-.8-.8.7.7,0,0,1,.8-.8h7.2a.7.7,0,0,1,.8.8A.8.8,0,0,1,28.6,17.9Z" style="fill:#5f5f9b"/><path d="M24.4,19.9a.8.8,0,0,0,.8-.8V16.7a.8.8,0,0,0-1.6,0v2.4A.8.8,0,0,0,24.4,19.9Z" style="fill:#fcad6d"/><path d="M26.1,19.9a.9.9,0,0,0,.8-.8V16.7a.8.8,0,0,0-.8-.8.8.8,0,0,0-.9.8v2.4A.9.9,0,0,0,26.1,19.9Z" style="fill:#fcad6d"/><path d="M22.7,19.9a.9.9,0,0,0,.9-.8V16.7a.8.8,0,0,0-.9-.8.8.8,0,0,0-.8.8v2.4A.9.9,0,0,0,22.7,19.9Z" style="fill:#fcad6d"/><path d="M21.9,16.7v1.4a.8.8,0,0,1,.8-.6,1,1,0,0,1,.9.6V16.7a.8.8,0,0,0-.9-.8A.8.8,0,0,0,21.9,16.7Z" style="fill:#fd995b"/><path d="M27.8,19.9a.9.9,0,0,0,.8-.8V16.7a.8.8,0,0,0-.8-.8.8.8,0,0,0-.9.8v2.4A.9.9,0,0,0,27.8,19.9Z" style="fill:#fcad6d"/><path d="M23.6,16.7v1.4a.8.8,0,0,1,1.6,0V16.7a.8.8,0,0,0-1.6,0Z" style="fill:#fd995b"/><path d="M25.2,16.7v1.4a1,1,0,0,1,.9-.6.8.8,0,0,1,.8.6V16.7a.8.8,0,0,0-.8-.8A.8.8,0,0,0,25.2,16.7Z" style="fill:#fd995b"/><path d="M26.9,16.7v1.4a.9.9,0,0,1,.9-.6.8.8,0,0,1,.8.6V16.7a.8.8,0,0,0-.8-.8A.8.8,0,0,0,26.9,16.7Z" style="fill:#fd995b"/><path d="M23.6,17.6l-2.4-.7a.9.9,0,0,1-.6-.6c-.3-.7-.5-2.2.9-4.3a2.1,2.1,0,0,0,.4-1.1v-.2h2.4v1.7a3.2,3.2,0,0,1-1.9,3c2,.4,2,1.4,1.9,1.8a.6.6,0,0,1-.7.4Z" style="fill:#fcad6d"/><path d="M21.6,17l.9.3a1.1,1.1,0,0,1,1.8-.2c.1-.4,0-1.3-1.9-1.7h-.2a1,1,0,0,1-.6,1.5Z" style="fill:#fd995b"/><path d="M24.3,17.2h0c-.4-.3-1.2-.8-1.8.2l1.1.3A.6.6,0,0,0,24.3,17.2Z" style="fill:#fcd7c3"/><path d="M24.2,13.3c-.1-.1-.3,0-.3.2a2.5,2.5,0,0,1-1.6,1.6c-.1.1-.2.3-.1.4l.3.2a4.6,4.6,0,0,0,1.1-.7,4.3,4.3,0,0,0,.8-1.4c0-.1-.1-.3-.2-.3Z" style="fill:#fd995b"/><path d="M26.4,11.8a1.9,1.9,0,0,0-1.4.4.6.6,0,0,1-.7.1,2.4,2.4,0,0,0-3.1.4H21a5.6,5.6,0,0,0,.5-.8,2.1,2.1,0,0,0,.4-1.1v-.2h5.7v.7a1.1,1.1,0,0,0,.3.8,1.6,1.6,0,0,1,.4.7A2.2,2.2,0,0,0,26.4,11.8Z" style="fill:#fd995b"/><path d="M27.9,6.3A14.3,14.3,0,0,0,25,6a12.7,12.7,0,0,0-3.4.4v2h6.3Z" style="fill:#47477f"/><path d="M27.9,8.1H21.6a.3.3,0,0,0-.3.3v2.1a.3.3,0,0,0,.3.3h6.3a.3.3,0,0,0,.3-.3V8.4A.3.3,0,0,0,27.9,8.1Z" style="fill:#e9efff"/><path d="M24.7,10.5V8.4c0-.2.2-.3.4-.3H21.6a.3.3,0,0,0-.3.3v2.1a.3.3,0,0,0,.3.3h3.5C24.9,10.8,24.7,10.7,24.7,10.5Z" style="fill:#bec8f7"/><path d="M36.4,31.5H13.6a.6.6,0,0,1-.6-.6V23a1.5,1.5,0,0,1,1.5-1.4h21A1.5,1.5,0,0,1,37,23v7.9A.6.6,0,0,1,36.4,31.5Z" style="fill:#47477f"/><path d="M18.5,25.9a1,1,0,0,1-.6-.8V22.4a.8.8,0,0,1,.9-.8H14.5A1.5,1.5,0,0,0,13,23v7.9a.6.6,0,0,0,.6.6h4.9V25.9Z" style="fill:#3b3868"/><path d="M17.4,29.8v2.6a.9.9,0,0,0,.9.8.8.8,0,0,0,.8-.8V29.8Z" style="fill:#7272af"/><path d="M19.1,28.1H17.4V25.9l.2-.2h1.3c.2,0,.2.1.2.2v2.2Z" style="fill:#5f5f9b"/><path d="M30.9,29.8v2.6a.8.8,0,0,0,.8.8.9.9,0,0,0,.9-.8V29.8Z" style="fill:#7272af"/><path d="M17.4,29.8v2.3a.9.9,0,0,1,.9-.9.8.8,0,0,1,.8.9V29.8Z" style="fill:#5f5f9b"/><path d="M30.9,29.8v2.3a.8.8,0,0,1,.8-.9.9.9,0,0,1,.9.9V29.8Z" style="fill:#5f5f9b"/><path d="M32.6,28.1H30.9V25.9c0-.1,0-.2.2-.2h1.3l.2.2v2.2Z" style="fill:#5f5f9b"/><path d="M20.7,23.6h8.6a.6.6,0,0,0,.6-.6V21.6H20.1V23a.6.6,0,0,0,.6.6Z" style="fill:#3b3868"/><path d="M27,21.6V23a.6.6,0,0,1-.6.6h2.9a.6.6,0,0,0,.6-.6V21.6Z" style="fill:#2d2d59"/><path d="M29.5,29a1.3,1.3,0,0,1,1.3-1.4h1.8A1.4,1.4,0,0,1,34,29a1.3,1.3,0,0,1-1.4,1.3H30.8A1.3,1.3,0,0,1,29.5,29Zm1.3-.4c-.2,0-.3.2-.3.4a.3.3,0,0,0,.3.3h1.8A.4.4,0,0,0,33,29a.4.4,0,0,0-.4-.4Z" style="fill:#bec8f7"/><path d="M31.8,29.3h.8a.3.3,0,0,0,.3-.3c.1-.2-.1-.4-.3-.4h-.8a.5.5,0,1,1,0-1h.8A1.5,1.5,0,0,1,34,28.9a1.4,1.4,0,0,1-1.4,1.4h-.8a.5.5,0,1,1,0-1Z" style="fill:#e9efff"/><path d="M16,29a1.4,1.4,0,0,1,1.4-1.4h1.8A1.3,1.3,0,0,1,20.5,29a1.3,1.3,0,0,1-1.3,1.3H17.4A1.3,1.3,0,0,1,16,29Zm1.4-.4a.4.4,0,0,0-.4.4.4.4,0,0,0,.4.3h1.8a.3.3,0,0,0,.3-.3c0-.2-.1-.4-.3-.4Z" style="fill:#bec8f7"/><path d="M18.3,29.3h.9a.3.3,0,0,0,.3-.3c.1-.2-.1-.4-.3-.4h-.9a.5.5,0,0,1,0-1h.9a1.3,1.3,0,0,1,1.3,1.3,1.3,1.3,0,0,1-1.3,1.4h-.9a.5.5,0,0,1,0-1Z" style="fill:#e9efff"/><text transform="translate(19.9 36.4)" style="font-size:5.137725353240967px;fill:#fff;font-family:Poppins-SemiBold, Poppins;font-weight:600">JOB</text><circle cx="25" cy="25" r="24" style="fill:none;stroke:#1043e9;stroke-miterlimit:10"/></svg>